<svg width="56" height="56" viewBox="0 0 56 56" fill="none" xmlns="http://www.w3.org/2000/svg">
<g clip-path="url(#clip0_1_10954)">
<path d="M16.0938 12.2204L20.1155 8.19922C20.0604 7.62433 20.2534 7.0291 20.6943 6.58821L22.8111 4.47178C24.3472 2.93579 26.3916 2.08887 28.5642 2.08887C30.7369 2.08887 32.7803 2.93582 34.3164 4.47178L40.6211 10.7758C40.9378 11.0925 41.139 11.5055 41.1943 11.9488L41.2551 12.4409L42.9838 14.1694C43.0474 14.1632 43.1114 14.1601 43.1757 14.1601C43.6996 14.1601 44.2128 14.3661 44.5952 14.7484L51.9978 22.1502C53.5338 23.6862 54.381 25.7303 54.381 27.9027C54.381 30.0751 53.5338 32.1192 51.9978 33.6552L50.3265 35.3263C49.9415 35.7112 49.4271 35.9148 48.9059 35.9148C48.8726 35.9148 48.8393 35.9139 48.8059 35.9121V36.0148C48.8059 36.547 48.594 37.0576 48.2175 37.4341L45.5489 40.1024C45.1682 40.4842 44.6549 40.6911 44.1289 40.6911C44.0649 40.6911 44.0009 40.6881 43.937 40.6819L43.4727 41.1462C43.5297 41.742 43.318 42.334 42.894 42.758L34.3164 51.3346C32.7802 52.8705 30.736 53.7175 28.5632 53.7175C26.3906 53.7175 24.3463 52.8705 22.8101 51.3346L18.9556 47.4804C18.5791 47.104 18.3671 46.5933 18.3671 46.061V45.8608L11.8696 39.3641H11.6693C11.1371 39.3641 10.6263 39.1522 10.2498 38.7757L5.12965 33.6561C3.59349 32.1201 2.74646 30.0761 2.74646 27.9037C2.74646 25.7313 3.59349 23.6871 5.12965 22.1512L5.17881 22.102C5.56367 21.7172 6.07703 21.5137 6.59934 21.5137C6.66291 21.5137 6.72668 21.5167 6.79024 21.5229L9.04922 19.2642C8.99322 18.6792 9.19569 18.0856 9.62811 17.6532L14.4818 12.8001L16.0938 12.2204ZM16.0938 12.2204C16.0294 12.2143 15.9654 12.2113 15.9017 12.2113C15.3737 12.2113 14.8611 12.4198 14.4818 12.8001L16.0938 12.2204ZM22.6301 8.00856L24.4897 6.14923C25.6139 5.02334 27.0885 4.46022 28.5642 4.46022C30.0399 4.46022 31.5145 5.02312 32.6408 6.14837L38.857 12.3638L38.9872 13.4175L39.0026 13.5416L39.091 13.63L42.1561 16.6948L42.3181 16.8567L42.5341 16.7806L43.0815 16.5878L50.3221 23.8276C52.5734 26.0787 52.5734 29.7276 50.3221 31.9787L48.8306 33.47L48.3566 33.2496L48.126 33.1424L47.9462 33.3222L46.5427 34.7254L46.4362 34.8319V34.9825V35.8642L44.0161 38.284L43.3727 38.1363L43.1765 38.0912L43.0342 38.2335L41.1151 40.1525L40.9916 40.276L41.0109 40.4496L41.0947 41.205L32.6407 49.6581C31.5155 50.7832 30.04 51.3461 28.5642 51.3461C27.0885 51.3461 25.6139 50.7832 24.4877 49.6579L20.7397 45.9104V45.0289V44.8782L20.6332 44.7718L12.9597 37.0992L12.8532 36.9927H12.7026H11.8209L6.80726 31.9796C4.5976 29.7702 4.55672 26.2142 6.68465 23.955L7.18325 24.1695L7.41372 24.2687L7.58825 24.0885C7.61211 24.064 7.63385 24.0383 7.64461 24.0258C7.65829 24.01 7.66309 24.005 7.66585 24.0023L7.67 23.9982L11.6354 20.0333L11.8155 19.8531L11.7077 19.6223L11.4869 19.1496L16.0293 14.6077L16.7343 14.7217L16.918 14.7513L17.0495 14.6198L22.8887 8.78132L23.1457 8.52419L22.8887 8.26707L22.6301 8.00856Z" fill="#971335"/>
<path d="M16.0938 12.2204L20.1155 8.19922C20.0604 7.62433 20.2534 7.0291 20.6943 6.58821L22.8111 4.47178C24.3472 2.93579 26.3916 2.08887 28.5642 2.08887C30.7369 2.08887 32.7803 2.93582 34.3164 4.47178L40.6211 10.7758C40.9378 11.0925 41.139 11.5055 41.1943 11.9488L41.2551 12.4409L42.9838 14.1694C43.0474 14.1632 43.1114 14.1601 43.1757 14.1601C43.6996 14.1601 44.2128 14.3661 44.5952 14.7484L51.9978 22.1502C53.5338 23.6862 54.381 25.7303 54.381 27.9027C54.381 30.0751 53.5338 32.1192 51.9978 33.6552L50.3265 35.3263C49.9415 35.7112 49.4271 35.9148 48.9059 35.9148C48.8726 35.9148 48.8393 35.9139 48.8059 35.9121V36.0148C48.8059 36.547 48.594 37.0576 48.2175 37.4341L45.5489 40.1024C45.1682 40.4842 44.6549 40.6911 44.1289 40.6911C44.0649 40.6911 44.0009 40.6881 43.937 40.6819L43.4727 41.1462C43.5297 41.742 43.318 42.334 42.894 42.758L34.3164 51.3346C32.7802 52.8705 30.736 53.7175 28.5632 53.7175C26.3906 53.7175 24.3463 52.8705 22.8101 51.3346L18.9556 47.4804C18.5791 47.104 18.3671 46.5933 18.3671 46.061V45.8608L11.8696 39.3641H11.6693C11.1371 39.3641 10.6263 39.1522 10.2498 38.7757L5.12965 33.6561C3.59349 32.1201 2.74646 30.0761 2.74646 27.9037C2.74646 25.7313 3.59349 23.6871 5.12965 22.1512L5.17881 22.102C5.56367 21.7172 6.07703 21.5137 6.59934 21.5137C6.66291 21.5137 6.72668 21.5167 6.79024 21.5229L9.04922 19.2642C8.99322 18.6792 9.19569 18.0856 9.62811 17.6532L14.4818 12.8001M16.0938 12.2204L14.4818 12.8001M16.0938 12.2204C16.0294 12.2143 15.9654 12.2113 15.9017 12.2113C15.3737 12.2113 14.8611 12.4198 14.4818 12.8001M22.6301 8.00856L24.4897 6.14923C25.6139 5.02334 27.0885 4.46022 28.5642 4.46022C30.0399 4.46022 31.5145 5.02312 32.6408 6.14837L38.857 12.3638L38.9872 13.4175L39.0026 13.5416L39.091 13.63L42.1561 16.6948L42.3181 16.8567L42.5341 16.7806L43.0815 16.5878L50.3221 23.8276C52.5734 26.0787 52.5734 29.7276 50.3221 31.9787L48.8306 33.47L48.3566 33.2496L48.126 33.1424L47.9462 33.3222L46.5427 34.7254L46.4362 34.8319V34.9825V35.8642L44.0161 38.284L43.3727 38.1363L43.1765 38.0912L43.0342 38.2335L41.1151 40.1525L40.9916 40.276L41.0109 40.4496L41.0947 41.205L32.6407 49.6581C31.5155 50.7832 30.04 51.3461 28.5642 51.3461C27.0885 51.3461 25.6139 50.7832 24.4877 49.6579L20.7397 45.9104V45.0289V44.8782L20.6332 44.7718L12.9597 37.0992L12.8532 36.9927H12.7026H11.8209L6.80726 31.9796C4.5976 29.7702 4.55672 26.2142 6.68465 23.955L7.18325 24.1695L7.41372 24.2687L7.58825 24.0885C7.61211 24.064 7.63385 24.0383 7.64461 24.0258C7.65829 24.01 7.66309 24.005 7.66585 24.0023L7.67 23.9982L11.6354 20.0333L11.8155 19.8531L11.7077 19.6223L11.4869 19.1496L16.0293 14.6077L16.7343 14.7217L16.918 14.7513L17.0495 14.6198L22.8887 8.78132L23.1457 8.52419L22.8887 8.26707L22.6301 8.00856Z" stroke="#971335" stroke-width="0.727247"/>
<path d="M32.7269 6.75393L49.7153 23.7404C52.0151 26.0399 52.0151 29.7668 49.7153 32.0663L32.7269 49.0528C30.4271 51.3523 26.6997 51.3523 24.4 49.0528L7.41154 32.0663C5.11176 29.7668 5.11176 26.0399 7.41154 23.7404L24.4 6.75393C26.6997 4.45438 30.428 4.45438 32.7269 6.75393Z" fill="#BA1B44"/>
<path d="M6.54933 32.2358L11.6694 37.3554H15.1539L17.8441 40.5984L20.3752 42.101V46.0601L24.2297 49.9142C26.6231 52.3073 30.5027 52.3073 32.896 49.9142L41.4736 41.3377L41.1015 37.9886L44.129 38.6834L46.798 36.0148V32.9258L48.906 33.9061L50.5774 32.2349C52.9707 29.8418 52.9707 25.9627 50.5774 23.5696L43.1748 16.1678L39.8359 17.3427L39.2008 12.1943L32.896 5.89024C30.5027 3.4972 26.6231 3.4972 24.2297 5.89024L22.114 8.00667L22.9073 8.79986L20.7714 12.122L20.059 14.8909L15.9018 14.2182L11.0477 19.0717L12.9388 23.1166L10.2487 23.5908V25.0933L6.59754 23.5195L6.54838 23.5686C4.15697 25.9636 4.15697 29.8428 6.54933 32.2358Z" fill="url(#paint0_radial_1_10954)"/>
<path d="M26.9784 20.198L28.579 13.633C28.6591 13.5329 28.7124 13.5912 28.7291 13.633C29.0292 15.1127 29.7195 18.4348 30.0796 19.8854C30.4398 21.336 29.5628 21.6152 29.0792 21.5736H28.1289C27.0484 21.5736 26.9117 20.6565 26.9784 20.198Z" fill="#9F0F34"/>
<path d="M26.9784 34.1545L28.579 40.7196C28.6591 40.8196 28.7124 40.7613 28.7291 40.7196C29.0292 39.2398 29.7195 35.9177 30.0796 34.4671C30.4398 33.0166 29.5628 32.7373 29.0792 32.779H28.1289C27.0484 32.779 26.9117 33.696 26.9784 34.1545Z" fill="#9F0F34"/>
<path d="M21.7829 24.8069L17.7744 19.4376C17.7535 19.3011 17.838 19.2824 17.8828 19.2901C19.2639 19.8503 22.3764 21.092 23.7779 21.5763C25.1794 22.0607 24.7654 23.0846 24.3832 23.536L23.6964 24.4707C22.9157 25.5332 22.0955 25.1376 21.7829 24.8069Z" fill="#9F0F34"/>
<path d="M21.7829 29.0284L17.7744 34.3976C17.7535 34.5342 17.838 34.553 17.8828 34.5453C19.2639 33.985 22.3764 32.7434 23.7779 32.2589C25.1794 31.7746 24.7654 30.7507 24.3832 30.2992L23.6964 29.3646C22.9157 28.3021 22.0955 28.6978 21.7829 29.0284Z" fill="#9F0F34"/>
<path d="M35.3446 24.8069L39.3531 19.4376C39.374 19.3011 39.2895 19.2824 39.2447 19.2901C37.8635 19.8503 34.7511 21.092 33.3496 21.5763C31.9481 22.0607 32.3621 23.0846 32.7443 23.536L33.4311 24.4707C34.2118 25.5332 35.032 25.1376 35.3446 24.8069Z" fill="#9F0F34"/>
<path d="M35.3446 29.0284L39.3531 34.3976C39.374 34.5342 39.2895 34.553 39.2447 34.5453C37.8635 33.985 34.7511 32.7434 33.3496 32.2589C31.9481 31.7746 32.3621 30.7507 32.7443 30.2992L33.4311 29.3646C34.2118 28.3021 35.032 28.6978 35.3446 29.0284Z" fill="#9F0F34"/>
<path d="M28.5643 33.502C32.0586 33.502 34.8913 30.6696 34.8913 27.1757C34.8913 23.6817 32.0586 20.8493 28.5643 20.8493C25.07 20.8493 22.2372 23.6817 22.2372 27.1757C22.2372 30.6696 25.07 33.502 28.5643 33.502Z" fill="#9F0F34" stroke="#F86560" stroke-width="1.45449"/>
<path d="M28.5223 29.5143C29.8205 29.5143 30.8728 28.4619 30.8728 27.1638C30.8728 25.8656 29.8205 24.8132 28.5223 24.8132C27.2241 24.8132 26.1718 25.8656 26.1718 27.1638C26.1718 28.4619 27.2241 29.5143 28.5223 29.5143Z" fill="#9F0F34" stroke="#F7645F" stroke-width="0.727247"/>
</g>
<defs>
<radialGradient id="paint0_radial_1_10954" cx="0" cy="0" r="1" gradientUnits="userSpaceOnUse" gradientTransform="translate(28.5637 27.9013) scale(23.8088 23.8065)">
<stop offset="0.229167" stop-color="#FB6B64"/>
<stop offset="1" stop-color="#D32437"/>
</radialGradient>
<clipPath id="clip0_1_10954">
<rect width="55" height="55" fill="white" transform="translate(0.563721 0.270752)"/>
</clipPath>
</defs>
</svg>
